<?xml version="1.0" encoding="utf-8"?>
<!-- Generator: Adobe Illustrator 25.4.1, SVG Export Plug-In . SVG Version: 6.00 Build 0)  -->
<svg version="1.1" id="Layer_1" xmlns="http://www.w3.org/2000/svg" xmlns:xlink="http://www.w3.org/1999/xlink" x="0px" y="0px"
	 viewBox="0 0 1080 1080" style="enable-background:new 0 0 1080 1080;" xml:space="preserve">
<style type="text/css">
	.st0{fill:#444444;}
</style>
<circle cx="540" cy="540" r="472.12"/>
<path class="st0" d="M674.8,872.36H405.2c-59.15,0-107.09-47.95-107.09-107.09V314.73c0-59.15,47.95-107.09,107.09-107.09H684.3
	c53.9,0,97.6,43.7,97.6,97.6v460.04C781.89,824.42,733.94,872.36,674.8,872.36z"/>
<rect x="367.65" y="303.94" width="344.69" height="444.12"/>
<circle cx="540" cy="809.54" r="36.22"/>
<circle cx="540" cy="247.97" r="14.72"/>
<path d="M604.18,289.73H475.82c-3.65,0-6.61-2.96-6.61-6.61l0,0c0-3.65,2.96-6.61,6.61-6.61h128.36c3.65,0,6.61,2.96,6.61,6.61l0,0
	C610.79,286.77,607.83,289.73,604.18,289.73z"/>
</svg>
